<svg xmlns="http://www.w3.org/2000/svg" viewBox="0 0 200 200" fill="none">
  <defs>
    <linearGradient id="leafGrad" x1="35" y1="175" x2="175" y2="25" gradientUnits="userSpaceOnUse">
      <stop offset="0" stop-color="#15803D"/>
      <stop offset="0.5" stop-color="#4ADE80"/>
      <stop offset="1" stop-color="#E7FAC3"/>
    </linearGradient>
    <linearGradient id="leafEdge" x1="35" y1="175" x2="175" y2="25" gradientUnits="userSpaceOnUse">
      <stop offset="0" stop-color="#166534"/>
      <stop offset="1" stop-color="#BEF264"/>
    </linearGradient>
  </defs>
  <ellipse cx="98" cy="174" rx="44" ry="6.5" fill="#0F5132" opacity="0.13"/>
  <path d="
    M 168 28
    C 192 56, 192 104, 160 134
    C 132 161, 90 174, 56 162
    C 22 150, 10 112, 24 80
    C 38 47, 76 22, 110 20
    C 132 19, 152 18, 168 28
    L 176 60
    L 158 66
    L 166 90
    Z"
    fill="url(#leafGrad)" stroke="url(#leafEdge)" stroke-width="4" stroke-linejoin="round"/>
  <path d="M 38 148 C 70 122, 102 92, 152 46"
        stroke="#166534" stroke-width="6.5" stroke-linecap="round" opacity="0.5" fill="none"/>
  <path d="M 38 148 C 33 152, 28 156, 24 160"
        stroke="#15803D" stroke-width="9" stroke-linecap="round" fill="none"/>
</svg>
